<?xml version="1.0"?>
<svg xmlns="http://www.w3.org/2000/svg" id="Layer_1" data-name="Layer 1" viewBox="0 0 512 512" width="512" height="512"><title>home location map pointer</title><path d="M446,118.11v205.1a38,38,0,0,1-38,38H299.62L257.16,469.48a5.206,5.206,0,0,1-8.78,0L205.92,361.21H104a38,38,0,0,1-38-38V118.11a38,38,0,0,1,38-38H408A38,38,0,0,1,446,118.11Z" style="fill:#e48e66"/><polygon points="325 214.75 256 163 187 214.75 166 230.5 166 195.9 256 128.4 346 195.9 346 230.5 325 214.75" style="fill:#f8ec7d"/><polygon points="325 214.75 325 303.6 187 303.6 187 214.75 256 163 325 214.75" style="fill:#6fe3ff"/><path d="M253.17,504.96C185.5,504.96,117,490.578,117,463.09c0-11.054,10.583-20.413,31.455-27.819,17.89-6.349,43.032-10.971,70.795-13.014a6,6,0,1,1,.88,11.967C157.963,438.8,129,454.154,129,463.09c0,5.117,10.442,13.155,33.771,19.579,24.1,6.637,56.205,10.291,90.4,10.291,63.623,0,109.065-12.364,121.071-24.577,1.858-1.891,2.786-3.637,2.76-5.191,0-.034,0-.068,0-.1,0-8.813-28.637-23.973-90.1-28.527a6,6,0,1,1,.887-11.966c27.5,2.037,52.417,6.645,70.156,12.974,20.579,7.344,31.029,16.585,31.061,27.469.068,4.872-2.019,9.5-6.2,13.755C366.239,493.642,314.145,504.96,253.17,504.96Z" style="fill:#6fe3ff"/></svg>
