<?xml version="1.0"?>
<svg xmlns="http://www.w3.org/2000/svg" id="Layer_1" data-name="Layer 1" viewBox="0 0 512 512" width="512" height="512"><title>school location map</title><path d="M389.04,257.88a120.811,120.811,0,1,1-28.25-3.33A120.773,120.773,0,0,1,389.04,257.88Z" style="fill:#e48e66"/><path d="M415.21,366.89v39.87h-4.7c-22.6,0-44.92,30.65-50.37,30.65-5.6,0-27.77-30.65-51.01-30.65h-3.96V366.49l.15-.35,55.47,23.09,54.31-22.61Z" style="fill:#6fe3ff"/><path d="M397.1,191.91a180.288,180.288,0,0,1-8.04,65.9l-.02.07A120.78,120.78,0,0,0,253.1,429.91l-39.11,41.66L83.75,332.85c-18.11-19.29-32.88-41.66-41.94-66.51a181.729,181.729,0,0,1-10.94-74.43A193.226,193.226,0,0,1,86.37,68.98,178.265,178.265,0,0,1,213.99,16C316.37,16,390.87,98.63,397.1,191.91Zm-105.15-2.2c0-44.22-34.91-80.06-77.96-80.06s-77.96,35.84-77.96,80.06,34.9,80.05,77.96,80.05S291.95,233.92,291.95,189.71Z" style="fill:#f8ec7d"/><path d="M435.87,395.3a6,6,0,0,1-6-6V358.11a6,6,0,0,1,12,0V389.3A6,6,0,0,1,435.87,395.3Z" style="fill:#6fe3ff"/><polygon points="452.16 351.19 415.1 366.62 360.79 389.23 305.32 366.14 269.42 351.19 360.79 313.15 452.16 351.19" style="fill:#f8ec7d"/></svg>
